<?xml version="1.0" standalone="no"?>
<!DOCTYPE svg PUBLIC "-//W3C//DTD SVG 20010904//EN"
 "http://www.w3.org/TR/2001/REC-SVG-20010904/DTD/svg10.dtd">
<svg version="1.0" xmlns="http://www.w3.org/2000/svg"
 width="200.000000pt" height="200.000000pt" viewBox="0 0 200.000000 200.000000"
 preserveAspectRatio="xMidYMid meet">
<metadata>
Created by potrace 1.11, written by Peter Selinger 2001-2013
</metadata>
<g transform="translate(0.000000,200.000000) scale(0.100000,-0.100000)"
fill="#000000" stroke="none">
<path d="M770 1984 c-186 -47 -342 -135 -475 -269 -127 -126 -209 -264 -255
-431 -30 -106 -31 -111 -34 -259 -4 -166 16 -271 81 -420 94 -215 276 -400
496 -503 215 -101 486 -117 728 -41 259 80 500 301 608 556 57 135 75 232 75
398 -1 127 -5 164 -26 245 -97 365 -393 650 -752 726 -91 19 -367 18 -446 -2z"/>
</g>
</svg>
